<svg height="1166" width="720" xmlns="http://www.w3.org/2000/svg">
<rect height="1166" fill="#555" width="720"></rect>
<text fill="#7f7" font-family="Courier New" font-size="12" xml:space="preserve">
<tspan x="10" y="26">6 megabytes installed</tspan>
<tspan x="10" y="42"></tspan>
<tspan x="10" y="58">node_modules</tspan>
<tspan x="10" y="74">└─┬ in-app-purchase@1.3.1 </tspan>
<tspan x="10" y="90">  ├─┬ request@2.79.0 </tspan>
<tspan x="10" y="106">  │ ├── aws-sign2@0.6.0 </tspan>
<tspan x="10" y="122">  │ ├── aws4@1.6.0 </tspan>
<tspan x="10" y="138">  │ ├── caseless@0.11.0 </tspan>
<tspan x="10" y="154">  │ ├─┬ combined-stream@1.0.5 </tspan>
<tspan x="10" y="170">  │ │ └── delayed-stream@1.0.0 </tspan>
<tspan x="10" y="186">  │ ├── extend@3.0.0 </tspan>
<tspan x="10" y="202">  │ ├── forever-agent@0.6.1 </tspan>
<tspan x="10" y="218">  │ ├─┬ form-data@2.1.4 </tspan>
<tspan x="10" y="234">  │ │ └── asynckit@0.4.0 </tspan>
<tspan x="10" y="250">  │ ├─┬ har-validator@2.0.6 </tspan>
<tspan x="10" y="266">  │ │ ├─┬ chalk@1.1.3 </tspan>
<tspan x="10" y="282">  │ │ │ ├── ansi-styles@2.2.1 </tspan>
<tspan x="10" y="298">  │ │ │ ├── escape-string-regexp@1.0.5 </tspan>
<tspan x="10" y="314">  │ │ │ ├─┬ has-ansi@2.0.0 </tspan>
<tspan x="10" y="330">  │ │ │ │ └── ansi-regex@2.1.1 </tspan>
<tspan x="10" y="346">  │ │ │ ├── strip-ansi@3.0.1 </tspan>
<tspan x="10" y="362">  │ │ │ └── supports-color@2.0.0 </tspan>
<tspan x="10" y="378">  │ │ ├─┬ commander@2.9.0 </tspan>
<tspan x="10" y="394">  │ │ │ └── graceful-readlink@1.0.1 </tspan>
<tspan x="10" y="410">  │ │ ├─┬ is-my-json-valid@2.16.0 </tspan>
<tspan x="10" y="426">  │ │ │ ├── generate-function@2.0.0 </tspan>
<tspan x="10" y="442">  │ │ │ ├─┬ generate-object-property@1.2.0 </tspan>
<tspan x="10" y="458">  │ │ │ │ └── is-property@1.0.2 </tspan>
<tspan x="10" y="474">  │ │ │ ├── jsonpointer@4.0.1 </tspan>
<tspan x="10" y="490">  │ │ │ └── xtend@4.0.1 </tspan>
<tspan x="10" y="506">  │ │ └─┬ pinkie-promise@2.0.1 </tspan>
<tspan x="10" y="522">  │ │   └── pinkie@2.0.4 </tspan>
<tspan x="10" y="538">  │ ├─┬ hawk@3.1.3 </tspan>
<tspan x="10" y="554">  │ │ ├── boom@2.10.1 </tspan>
<tspan x="10" y="570">  │ │ ├── cryptiles@2.0.5 </tspan>
<tspan x="10" y="586">  │ │ ├── hoek@2.16.3 </tspan>
<tspan x="10" y="602">  │ │ └── sntp@1.0.9 </tspan>
<tspan x="10" y="618">  │ ├─┬ http-signature@1.1.1 </tspan>
<tspan x="10" y="634">  │ │ ├── assert-plus@0.2.0 </tspan>
<tspan x="10" y="650">  │ │ ├─┬ jsprim@1.4.0 </tspan>
<tspan x="10" y="666">  │ │ │ ├── assert-plus@1.0.0 </tspan>
<tspan x="10" y="682">  │ │ │ ├── extsprintf@1.0.2 </tspan>
<tspan x="10" y="698">  │ │ │ ├── json-schema@0.2.3 </tspan>
<tspan x="10" y="714">  │ │ │ └── verror@1.3.6 </tspan>
<tspan x="10" y="730">  │ │ └─┬ sshpk@1.13.0 </tspan>
<tspan x="10" y="746">  │ │   ├── asn1@0.2.3 </tspan>
<tspan x="10" y="762">  │ │   ├── assert-plus@1.0.0 </tspan>
<tspan x="10" y="778">  │ │   ├── bcrypt-pbkdf@1.0.1 </tspan>
<tspan x="10" y="794">  │ │   ├─┬ dashdash@1.14.1 </tspan>
<tspan x="10" y="810">  │ │   │ └── assert-plus@1.0.0 </tspan>
<tspan x="10" y="826">  │ │   ├── ecc-jsbn@0.1.1 </tspan>
<tspan x="10" y="842">  │ │   ├─┬ getpass@0.1.6 </tspan>
<tspan x="10" y="858">  │ │   │ └── assert-plus@1.0.0 </tspan>
<tspan x="10" y="874">  │ │   ├── jodid25519@1.0.2 </tspan>
<tspan x="10" y="890">  │ │   ├── jsbn@0.1.1 </tspan>
<tspan x="10" y="906">  │ │   └── tweetnacl@0.14.5 </tspan>
<tspan x="10" y="922">  │ ├── is-typedarray@1.0.0 </tspan>
<tspan x="10" y="938">  │ ├── isstream@0.1.2 </tspan>
<tspan x="10" y="954">  │ ├── json-stringify-safe@5.0.1 </tspan>
<tspan x="10" y="970">  │ ├─┬ mime-types@2.1.15 </tspan>
<tspan x="10" y="986">  │ │ └── mime-db@1.27.0 </tspan>
<tspan x="10" y="1002">  │ ├── oauth-sign@0.8.2 </tspan>
<tspan x="10" y="1018">  │ ├── qs@6.3.2 </tspan>
<tspan x="10" y="1034">  │ ├── stringstream@0.0.5 </tspan>
<tspan x="10" y="1050">  │ ├─┬ tough-cookie@2.3.2 </tspan>
<tspan x="10" y="1066">  │ │ └── punycode@1.4.1 </tspan>
<tspan x="10" y="1082">  │ ├── tunnel-agent@0.4.3 </tspan>
<tspan x="10" y="1098">  │ └── uuid@3.0.1 </tspan>
<tspan x="10" y="1114">  ├─┬ xml-crypto@0.8.2 </tspan>
<tspan x="10" y="1130">  │ └── xpath.js@1.0.7 </tspan>
<tspan x="10" y="1146">  └── xmldom@0.1.19</tspan>
</text>
</svg>
